# xmcd
#
# Track frame offsets:
#	150
#	19292
#	35240
#	46067
#	60942
#	78060
#	94570
#	108625
#	123140
#	132107
#	152867
#	168227
#	178367
#	193710
#	209457
#	227057
#	250777
#	267289
#	285239
#
# Disc length: 4019 seconds
#
# Revision: 1
# Processed by: cddbd v1.4PL0 Copyright (c) Steve Scherf et al.
# Submitted via: audiograbber 1.81.03
#
DISCID=fc0fb113
DTITLE=Steve Earle - Transcendental Blues
DYEAR=2000
DGENRE=
TTITLE0=Transcendental Blues
TTITLE1=Everyone's In Love With You
TTITLE2=Another Town
TTITLE3=I Can Wait
TTITLE4=The Boy Who Never Cried
TTITLE5=Steve's Last Ramble
TTITLE6=The Galway Girl
TTITLE7=Lonelier Than This
TTITLE8=Wherever I Go
TTITLE9=When I Fall
TTITLE10=I Don't Want You To Lose You Yet
TTITLE11=Halo 'Round The Moon
TTITLE12=Until The Day I Die
TTITLE13=All My Life
TTITLE14=Over Yonder (Jonathan's Song)
TTITLE15=Copperhead Road (live)
TTITLE16=The Galway Girl (live)
TTITLE17=Steve's Last Ramble (live)
TTITLE18=I Feel Alright
EXTD=
EXTT0=
EXTT1=
EXTT2=
EXTT3=
EXTT4=
EXTT5=
EXTT6=
EXTT7=
EXTT8=
EXTT9=
EXTT10=
EXTT11=
EXTT12=
EXTT13=
EXTT14=
EXTT15=
EXTT16=
EXTT17=
EXTT18=
PLAYORDER=
